<mxfile host="app.diagrams.net" modified="2020-07-30T21:48:13.344Z" agent="5.0 (X11)" etag="MwjoGNVA02WYQGcT16l7" compressed="false" version="13.5.7" type="device">
  <diagram id="hysuHXq0HwB4ln-7UmiE" name="Page-1">
    <mxGraphModel dx="1044" dy="636" grid="1" gridSize="10" guides="1" tooltips="1" connect="1" arrows="1" fold="1" page="1" pageScale="1" pageWidth="850" pageHeight="1100" math="0" shadow="0">
      <root>
        <mxCell id="0" />
        <mxCell id="1" value="Big Venn" style="locked=1;" parent="0" />
        <mxCell id="YXFjX1sWi6LTYFtEqntK-6" value="" style="ellipse;whiteSpace=wrap;html=1;aspect=fixed;fillColor=none;align=center;" parent="1" vertex="1">
          <mxGeometry x="20" y="20" width="350" height="350" as="geometry" />
        </mxCell>
        <mxCell id="YXFjX1sWi6LTYFtEqntK-7" value="" style="ellipse;whiteSpace=wrap;html=1;aspect=fixed;fillColor=none;align=center;" parent="1" vertex="1">
          <mxGeometry x="150" y="20" width="350" height="350" as="geometry" />
        </mxCell>
        <mxCell id="YXFjX1sWi6LTYFtEqntK-9" value="&lt;div&gt;Complex policies&lt;/div&gt;" style="text;html=1;strokeColor=none;fillColor=none;align=center;verticalAlign=middle;whiteSpace=wrap;rounded=0;" parent="1" vertex="1">
          <mxGeometry x="90" y="70" width="40" height="20" as="geometry" />
        </mxCell>
        <mxCell id="YXFjX1sWi6LTYFtEqntK-10" value="Complex agents" style="text;html=1;strokeColor=none;fillColor=none;align=center;verticalAlign=middle;whiteSpace=wrap;rounded=0;" parent="1" vertex="1">
          <mxGeometry x="380" y="70" width="40" height="20" as="geometry" />
        </mxCell>
        <mxCell id="Y2Z072bzMsNm84nEPyUe-1" value="" style="ellipse;whiteSpace=wrap;html=1;aspect=fixed;fillColor=none;align=center;" vertex="1" parent="1">
          <mxGeometry x="90" y="220" width="350" height="350" as="geometry" />
        </mxCell>
        <mxCell id="Y2Z072bzMsNm84nEPyUe-2" value="Answer Set Programming" style="text;html=1;strokeColor=none;fillColor=none;align=center;verticalAlign=middle;whiteSpace=wrap;rounded=0;" vertex="1" parent="1">
          <mxGeometry x="245" y="510" width="40" height="20" as="geometry" />
        </mxCell>
        <mxCell id="YXFjX1sWi6LTYFtEqntK-19" value="Small Venn" style="locked=1;" parent="0" />
        <mxCell id="YXFjX1sWi6LTYFtEqntK-11" value="" style="ellipse;whiteSpace=wrap;html=1;aspect=fixed;fillColor=none;align=center;" parent="YXFjX1sWi6LTYFtEqntK-19" vertex="1">
          <mxGeometry x="210" y="100" width="80" height="80" as="geometry" />
        </mxCell>
        <mxCell id="YXFjX1sWi6LTYFtEqntK-8" value="" style="ellipse;whiteSpace=wrap;html=1;aspect=fixed;fillColor=none;align=center;" parent="YXFjX1sWi6LTYFtEqntK-19" vertex="1">
          <mxGeometry x="230" y="100" width="80" height="80" as="geometry" />
        </mxCell>
        <mxCell id="YXFjX1sWi6LTYFtEqntK-13" value="Trivial agents" style="text;html=1;strokeColor=none;fillColor=none;align=center;verticalAlign=middle;whiteSpace=wrap;rounded=0;" parent="YXFjX1sWi6LTYFtEqntK-19" vertex="1">
          <mxGeometry x="310" y="130" width="40" height="20" as="geometry" />
        </mxCell>
        <mxCell id="YXFjX1sWi6LTYFtEqntK-12" value="Access-control policies" style="text;html=1;strokeColor=none;fillColor=none;align=center;verticalAlign=middle;whiteSpace=wrap;rounded=0;" parent="YXFjX1sWi6LTYFtEqntK-19" vertex="1">
          <mxGeometry x="170" y="130" width="40" height="20" as="geometry" />
        </mxCell>
        <mxCell id="YXFjX1sWi6LTYFtEqntK-20" value="Labels" style="" parent="0" />
        <mxCell id="YXFjX1sWi6LTYFtEqntK-17" value="AAA" style="text;html=1;strokeColor=none;fillColor=none;align=center;verticalAlign=middle;whiteSpace=wrap;rounded=0;fontColor=#990000;" parent="YXFjX1sWi6LTYFtEqntK-20" vertex="1">
          <mxGeometry x="330" y="290" width="80" height="20" as="geometry" />
        </mxCell>
        <mxCell id="YXFjX1sWi6LTYFtEqntK-15" value="Prior work" style="text;html=1;strokeColor=none;fillColor=none;align=center;verticalAlign=middle;whiteSpace=wrap;rounded=0;fontColor=#990000;" parent="YXFjX1sWi6LTYFtEqntK-20" vertex="1">
          <mxGeometry x="240" y="130" width="40" height="20" as="geometry" />
        </mxCell>
        <mxCell id="YXFjX1sWi6LTYFtEqntK-16" value="AOPL" style="text;html=1;strokeColor=none;fillColor=none;align=center;verticalAlign=middle;whiteSpace=wrap;rounded=0;fontColor=#990000;" parent="YXFjX1sWi6LTYFtEqntK-20" vertex="1">
          <mxGeometry x="120" y="310" width="70" height="20" as="geometry" />
        </mxCell>
        <mxCell id="YXFjX1sWi6LTYFtEqntK-18" value="This thesis proposal" style="text;html=1;strokeColor=none;fillColor=none;align=center;verticalAlign=middle;whiteSpace=wrap;rounded=0;fontColor=#009900;" parent="YXFjX1sWi6LTYFtEqntK-20" vertex="1">
          <mxGeometry x="195" y="270" width="130" height="20" as="geometry" />
        </mxCell>
        <mxCell id="HaOj3r-GVHSecq72csWY-2" value="AIA" style="text;html=1;strokeColor=none;fillColor=none;align=center;verticalAlign=middle;whiteSpace=wrap;rounded=0;fontColor=#990000;" parent="YXFjX1sWi6LTYFtEqntK-20" vertex="1">
          <mxGeometry x="300" y="340" width="80" height="20" as="geometry" />
        </mxCell>
        <mxCell id="HaOj3r-GVHSecq72csWY-3" value="BDI" style="text;html=1;strokeColor=none;fillColor=none;align=center;verticalAlign=middle;whiteSpace=wrap;rounded=0;fontColor=#990000;" parent="YXFjX1sWi6LTYFtEqntK-20" vertex="1">
          <mxGeometry x="385" y="130" width="80" height="20" as="geometry" />
        </mxCell>
        <mxCell id="HaOj3r-GVHSecq72csWY-4" value="PDC-agent" style="text;html=1;strokeColor=none;fillColor=none;align=center;verticalAlign=middle;whiteSpace=wrap;rounded=0;fontColor=#990000;" parent="YXFjX1sWi6LTYFtEqntK-20" vertex="1">
          <mxGeometry x="220" y="200" width="80" height="20" as="geometry" />
        </mxCell>
      </root>
    </mxGraphModel>
  </diagram>
</mxfile>
